<svg width="24" height="24" viewBox="0 0 24 24" fill="none" xmlns="http://www.w3.org/2000/svg">
<path d="M17.2879 17.8182C17.0802 17.6105 16.7985 17.4937 16.5047 17.4937L7.61394 17.4937C7.00218 17.4937 6.50625 16.9978 6.50625 16.3861L6.50625 7.49532C6.50625 7.20154 6.38955 6.9198 6.18181 6.71206L1.89095 2.4212C1.19314 1.72339 0 2.21761 0 3.20445L0 22.8923C0 23.5041 0.49593 24 1.10769 24L20.7955 24C21.7824 24 22.2766 22.8069 21.5788 22.1091L17.2879 17.8182ZM6.71206 6.18181C6.9198 6.38955 7.20154 6.50625 7.49532 6.50625L16.3861 6.50625C16.9978 6.50625 17.4937 7.00218 17.4937 7.61394L17.4937 16.5047C17.4937 16.7985 17.6105 17.0802 17.8182 17.2879L22.1091 21.5788C22.8069 22.2766 24 21.7824 24 20.7955L24 1.10769C24 0.495932 23.5041 0 22.8923 0L3.20446 0C2.21761 0 1.72339 1.19314 2.4212 1.89095L6.71206 6.18181Z" fill="url(#paint0_linear_2441_10323)"/>
<defs>
<linearGradient id="paint0_linear_2441_10323" x1="21.8462" y1="-1.23077" x2="6.3" y2="12" gradientUnits="userSpaceOnUse">
<stop offset="0.01" stop-color="#BCB3F3"/>
<stop offset="0.517419" stop-color="#52B1FF"/>
<stop offset="1" stop-color="#0A85EA"/>
</linearGradient>
</defs>
</svg>
