<svg width="266" height="116" viewBox="0 0 266 116" fill="none" xmlns="http://www.w3.org/2000/svg">
<g clip-path="url(#clip0_2480_2808)">
<path d="M0 16C0 7.16345 7.16344 0 16 0H251C259.837 0 267 7.16344 267 16V116H0V16Z" fill="#E4F3FF"/>
<path d="M0.0495605 67.0576L3.12832 70.3711" stroke="#0A85EA" stroke-opacity="0.14" stroke-width="1.19883" stroke-miterlimit="10" stroke-linecap="round" stroke-linejoin="round"/>
<path d="M-1.00183 56.644L20.5497 79.2071" stroke="#0A85EA" stroke-opacity="0.14" stroke-width="1.19883" stroke-miterlimit="10" stroke-linecap="round" stroke-linejoin="round"/>
<path d="M14.4673 63.4285L33.3905 83.3092" stroke="#CC90C6" stroke-opacity="0.14" stroke-width="1.19883" stroke-miterlimit="10" stroke-linecap="round" stroke-linejoin="round"/>
<path d="M-14.0677 33.45L6.13204 54.5929" stroke="#CC90C6" stroke-opacity="0.14" stroke-width="1.19883" stroke-miterlimit="10" stroke-linecap="round" stroke-linejoin="round"/>
<path d="M1.77661 40.6292L35.1176 75.657" stroke="#0A85EA" stroke-opacity="0.14" stroke-width="1.19883" stroke-miterlimit="10" stroke-linecap="round" stroke-linejoin="round"/>
<path d="M29.3354 60.1152L37.2952 68.5566" stroke="#0A85EA" stroke-opacity="0.14" stroke-width="1.19883" stroke-miterlimit="10" stroke-linecap="round" stroke-linejoin="round"/>
<path d="M-20.0752 8.28345L20.8501 51.2794" stroke="#0A85EA" stroke-opacity="0.14" stroke-width="1.19883" stroke-miterlimit="10" stroke-linecap="round" stroke-linejoin="round"/>
<path d="M12.7401 33.2927L52.7643 75.342" stroke="#CC90C6" stroke-opacity="0.14" stroke-width="1.19883" stroke-miterlimit="10" stroke-linecap="round" stroke-linejoin="round"/>
<path d="M-4.90662 14.7529L4.4048 24.5355" stroke="#CC90C6" stroke-opacity="0.14" stroke-width="1.19883" stroke-miterlimit="10" stroke-linecap="round" stroke-linejoin="round"/>
<path d="M20.5497 32.03L46.3814 59.1688" stroke="#0A85EA" stroke-opacity="0.14" stroke-width="1.19883" stroke-miterlimit="10" stroke-linecap="round" stroke-linejoin="round"/>
<path d="M-5.80762 4.33911L13.2658 24.3776" stroke="#0A85EA" stroke-opacity="0.14" stroke-width="1.19883" stroke-miterlimit="10" stroke-linecap="round" stroke-linejoin="round"/>
<path d="M41.8007 44.9678L55.3173 59.1683" stroke="#CC90C6" stroke-opacity="0.14" stroke-width="1.19883" stroke-miterlimit="10" stroke-linecap="round" stroke-linejoin="round"/>
<path d="M5.83167 7.1792L32.0388 34.6335" stroke="#CC90C6" stroke-opacity="0.14" stroke-width="1.19883" stroke-miterlimit="10" stroke-linecap="round" stroke-linejoin="round"/>
<path d="M28.7347 21.7737L46.9821 40.9443" stroke="#0A85EA" stroke-opacity="0.14" stroke-width="1.19883" stroke-miterlimit="10" stroke-linecap="round" stroke-linejoin="round"/>
<path d="M8.00928 0L21.601 14.2794" stroke="#0A85EA" stroke-opacity="0.14" stroke-width="1.19883" stroke-miterlimit="10" stroke-linecap="round" stroke-linejoin="round"/>
<path d="M44.9548 29.3484L52.0135 36.8431" stroke="#CC90C6" stroke-opacity="0.14" stroke-width="1.19883" stroke-miterlimit="10" stroke-linecap="round" stroke-linejoin="round"/>
<path d="M18.8977 1.97241L36.8448 20.9064" stroke="#CC90C6" stroke-opacity="0.14" stroke-width="1.19883" stroke-miterlimit="10" stroke-linecap="round" stroke-linejoin="round"/>
<path d="M41.275 16.0938L45.6304 20.6695" stroke="#0A85EA" stroke-opacity="0.14" stroke-width="1.19883" stroke-miterlimit="10" stroke-linecap="round" stroke-linejoin="round"/>
<path d="M33.6157 8.04688L36.6194 11.2025" stroke="#0A85EA" stroke-opacity="0.14" stroke-width="1.19883" stroke-miterlimit="10" stroke-linecap="round" stroke-linejoin="round"/>
</g>
<defs>
<clipPath id="clip0_2480_2808">
<path d="M0 16C0 7.16345 7.16344 0 16 0H251C259.837 0 267 7.16344 267 16V116H0V16Z" fill="white"/>
</clipPath>
</defs>
</svg>
